<svg version="1.1" id="Layer_1" xmlns="http://www.w3.org/2000/svg" xmlns:xlink="http://www.w3.org/1999/xlink" x="0px" y="0px"
	 width="100%" viewBox="0 0 748 636" enable-background="new 0 0 748 636" xml:space="preserve">
<path fill="#FFFEFF" opacity="1.000000" stroke="none" 
	d="
M461.000000,637.000000 
	C307.333344,637.000000 154.166672,637.000000 1.000000,637.000000 
	C1.000000,425.000000 1.000000,213.000000 1.000000,1.000000 
	C250.333328,1.000000 499.666656,1.000000 749.000000,1.000000 
	C749.000000,213.000000 749.000000,425.000000 749.000000,637.000000 
	C653.166687,637.000000 557.333313,637.000000 461.000000,637.000000 
M295.128784,554.300049 
	C304.109680,558.258484 312.902496,562.734985 322.107208,566.077026 
	C348.378998,575.615723 375.737457,578.603760 403.546600,579.207031 
	C448.626495,580.184814 490.090057,568.508057 528.376038,544.974426 
	C558.611877,526.389038 582.319763,501.231354 601.699707,471.800934 
	C619.506775,444.759125 630.819763,415.296570 633.273376,382.831085 
	C636.050110,346.090240 633.216797,309.948090 620.717407,274.932678 
	C620.138306,273.310333 620.486816,270.395660 621.601624,269.274323 
	C637.708313,253.073364 646.812134,233.512222 650.266418,211.111160 
	C656.633545,169.820663 646.090393,135.387222 610.534912,110.484634 
	C587.549683,94.386009 562.598267,87.874748 534.945007,93.006538 
	C512.365723,97.196709 495.070709,109.964088 481.342102,127.827278 
	C478.009338,132.163742 475.093140,133.423294 469.653046,131.447632 
	C446.623047,123.083893 422.716949,118.921600 398.233551,118.512314 
	C367.149475,117.992691 337.361115,124.420113 308.768494,136.394211 
	C304.934570,137.999786 302.756470,137.289169 300.167145,134.422775 
	C290.300964,123.500946 279.217194,113.988853 266.635071,106.265579 
	C233.177765,85.728485 197.256989,80.045555 159.130829,88.869637 
	C128.164429,96.036629 103.458054,113.285538 84.471504,138.346222 
	C57.556976,173.871155 44.811378,213.536728 53.274441,258.280487 
	C55.103119,267.948608 58.833515,277.384277 62.690575,286.502930 
	C66.023689,294.382904 70.826263,301.636230 74.889412,309.214691 
	C76.854019,312.879028 78.340416,316.820709 80.506554,320.352722 
	C99.959923,352.072845 129.025803,368.826263 165.233246,374.039520 
	C169.867798,374.706818 171.616180,376.163696 172.217987,380.910187 
	C175.251740,404.838043 181.428848,427.944702 191.578476,449.903229 
	C202.948029,474.500977 218.049408,496.441345 237.793716,515.123779 
	C254.645615,531.069336 274.155487,543.093384 295.128784,554.300049 
M517.670227,82.020042 
	C533.831848,77.217865 550.290833,75.090881 567.013428,77.884315 
	C614.520020,85.820084 646.343262,112.358322 661.246582,158.449020 
	C663.336853,164.913605 664.324219,171.726624 666.093628,178.305313 
	C668.093994,185.742020 675.390869,191.067154 682.423096,190.566193 
	C688.463806,190.135880 693.216553,185.027603 694.390686,177.109283 
	C694.872925,173.857162 694.946960,170.418488 694.476135,167.170578 
	C689.862183,135.345200 674.165771,108.963135 651.680603,87.077232 
	C613.455261,49.870705 566.934387,40.766342 515.770325,50.883080 
	C507.938873,52.431610 500.321533,55.147087 494.422913,61.053123 
	C486.630859,68.854988 488.828888,79.337410 498.970734,83.640892 
	C505.263702,86.311188 511.042175,84.211723 517.670227,82.020042 
z"/>
<path fill="#4D3195" opacity="1.000000" stroke="none" 
	d="
M294.795166,554.138916 
	C274.155487,543.093384 254.645615,531.069336 237.793716,515.123779 
	C218.049408,496.441345 202.948029,474.500977 191.578476,449.903229 
	C181.428848,427.944702 175.251740,404.838043 172.217987,380.910187 
	C171.616180,376.163696 169.867798,374.706818 165.233246,374.039520 
	C129.025803,368.826263 99.959923,352.072845 80.506554,320.352722 
	C78.340416,316.820709 76.854019,312.879028 74.889412,309.214691 
	C70.826263,301.636230 66.023689,294.382904 62.690575,286.502930 
	C58.833515,277.384277 55.103119,267.948608 53.274441,258.280487 
	C44.811378,213.536728 57.556976,173.871155 84.471504,138.346222 
	C103.458054,113.285538 128.164429,96.036629 159.130829,88.869637 
	C197.256989,80.045555 233.177765,85.728485 266.635071,106.265579 
	C279.217194,113.988853 290.300964,123.500946 300.167145,134.422775 
	C302.756470,137.289169 304.934570,137.999786 308.768494,136.394211 
	C337.361115,124.420113 367.149475,117.992691 398.233551,118.512314 
	C422.716949,118.921600 446.623047,123.083893 469.653046,131.447632 
	C475.093140,133.423294 478.009338,132.163742 481.342102,127.827278 
	C495.070709,109.964088 512.365723,97.196709 534.945007,93.006538 
	C562.598267,87.874748 587.549683,94.386009 610.534912,110.484634 
	C646.090393,135.387222 656.633545,169.820663 650.266418,211.111160 
	C646.812134,233.512222 637.708313,253.073364 621.601624,269.274323 
	C620.486816,270.395660 620.138306,273.310333 620.717407,274.932678 
	C633.216797,309.948090 636.050110,346.090240 633.273376,382.831085 
	C630.819763,415.296570 619.506775,444.759125 601.699707,471.800934 
	C582.319763,501.231354 558.611877,526.389038 528.376038,544.974426 
	C490.090057,568.508057 448.626495,580.184814 403.546600,579.207031 
	C375.737457,578.603760 348.378998,575.615723 322.107208,566.077026 
	C312.902496,562.734985 304.109680,558.258484 294.795166,554.138916 
M255.005539,135.427109 
	C239.067642,124.835556 221.770874,118.487953 202.547104,116.579025 
	C170.510895,113.397835 143.179764,123.188644 119.834213,144.772949 
	C97.900337,165.052063 86.123100,190.596741 82.114479,219.914932 
	C81.351349,225.496277 81.284927,231.172867 80.816643,237.973419 
	C89.103882,233.357666 96.018211,229.506592 103.109879,225.556732 
	C101.183502,237.685242 99.281075,248.768524 97.686150,259.895874 
	C94.615158,281.321320 98.918625,300.157593 115.069916,316.062592 
	C137.637573,338.286163 163.554291,350.666290 195.784088,347.826721 
	C196.762161,347.740570 198.704025,349.612640 198.858948,350.753387 
	C199.460587,355.183167 199.594757,359.683502 199.770432,364.162781 
	C200.506500,382.931061 204.418671,401.030640 210.891373,418.637085 
	C228.777481,467.289185 261.274689,503.056335 306.949982,526.937317 
	C326.846466,537.340088 348.206085,543.349182 370.518951,546.346924 
	C394.588959,549.580811 418.608154,550.008362 442.504456,545.801880 
	C488.443024,537.715332 527.499512,517.049622 558.338379,481.489044 
	C574.962158,462.319977 587.062256,440.692444 594.634766,416.603638 
	C604.901001,383.946075 606.499451,350.700439 600.032898,317.081390 
	C592.340820,277.091278 574.302429,242.495621 545.927673,213.271042 
	C527.405762,194.194427 506.020172,179.202560 482.001404,167.852234 
	C445.425385,150.567886 407.035187,145.478165 367.214691,151.193054 
	C342.820770,154.693970 319.572815,162.100464 298.330811,174.902481 
	C294.005066,177.509506 291.971527,176.203400 289.723969,172.396454 
	C281.055420,157.713547 269.612579,145.564484 255.005539,135.427109 
M618.082397,215.411880 
	C618.820557,211.329376 619.786377,207.273102 620.260620,203.160172 
	C623.751221,172.884735 616.187195,147.416748 588.431152,130.894379 
	C575.172607,123.001938 561.077942,119.134727 545.520813,121.773895 
	C530.634949,124.299187 517.808899,130.675308 506.933044,141.171204 
	C503.138031,144.833633 503.031708,145.227600 507.393921,147.806381 
	C515.121033,152.374298 522.983582,156.751953 530.439209,161.733398 
	C558.449402,180.448120 582.003357,203.606491 599.836304,232.357361 
	C601.863647,235.625900 603.988098,238.834229 606.548401,242.818985 
	C612.283813,233.875183 615.502136,225.224701 618.082397,215.411880 
z"/>
<path fill="#4E3395" opacity="1.000000" stroke="none" 
	d="
M517.289551,82.159309 
	C511.042175,84.211723 505.263702,86.311188 498.970734,83.640892 
	C488.828888,79.337410 486.630859,68.854988 494.422913,61.053123 
	C500.321533,55.147087 507.938873,52.431610 515.770325,50.883080 
	C566.934387,40.766342 613.455261,49.870705 651.680603,87.077232 
	C674.165771,108.963135 689.862183,135.345200 694.476135,167.170578 
	C694.946960,170.418488 694.872925,173.857162 694.390686,177.109283 
	C693.216553,185.027603 688.463806,190.135880 682.423096,190.566193 
	C675.390869,191.067154 668.093994,185.742020 666.093628,178.305313 
	C664.324219,171.726624 663.336853,164.913605 661.246582,158.449020 
	C646.343262,112.358322 614.520020,85.820084 567.013428,77.884315 
	C550.290833,75.090881 533.831848,77.217865 517.289551,82.159309 
z"/>
<path fill="#AD90CE" opacity="1.000000" stroke="none" 
	d="
M255.284409,135.655945 
	C269.612579,145.564484 281.055420,157.713547 289.723969,172.396454 
	C291.971527,176.203400 294.005066,177.509506 298.330811,174.902481 
	C319.572815,162.100464 342.820770,154.693970 367.214691,151.193054 
	C407.035187,145.478165 445.425385,150.567886 482.001404,167.852234 
	C506.020172,179.202560 527.405762,194.194427 545.927673,213.271042 
	C574.302429,242.495621 592.340820,277.091278 600.032898,317.081390 
	C606.499451,350.700439 604.901001,383.946075 594.634766,416.603638 
	C587.062256,440.692444 574.962158,462.319977 558.338379,481.489044 
	C527.499512,517.049622 488.443024,537.715332 442.504456,545.801880 
	C418.608154,550.008362 394.588959,549.580811 370.518951,546.346924 
	C348.206085,543.349182 326.846466,537.340088 306.949982,526.937317 
	C261.274689,503.056335 228.777481,467.289185 210.891373,418.637085 
	C204.418671,401.030640 200.506500,382.931061 199.770432,364.162781 
	C199.594757,359.683502 199.460587,355.183167 198.858948,350.753387 
	C198.704025,349.612640 196.762161,347.740570 195.784088,347.826721 
	C163.554291,350.666290 137.637573,338.286163 115.069916,316.062592 
	C98.918625,300.157593 94.615158,281.321320 97.686150,259.895874 
	C99.281075,248.768524 101.183502,237.685242 103.109879,225.556732 
	C96.018211,229.506592 89.103882,233.357666 80.816643,237.973419 
	C81.284927,231.172867 81.351349,225.496277 82.114479,219.914932 
	C86.123100,190.596741 97.900337,165.052063 119.834213,144.772949 
	C143.179764,123.188644 170.510895,113.397835 202.547104,116.579025 
	C221.770874,118.487953 239.067642,124.835556 255.284409,135.655945 
M419.785156,442.811920 
	C439.650452,454.267212 459.811188,453.403473 480.040527,444.005676 
	C490.261749,439.257263 497.132660,431.139832 500.133087,420.415161 
	C502.173065,413.123535 503.568573,405.447968 503.812103,397.897614 
	C504.416016,379.174042 501.736603,360.682861 496.548462,342.729370 
	C491.654846,325.795135 484.164886,310.098267 471.106018,297.581329 
	C454.301544,281.474121 430.162842,281.742828 415.539490,299.471161 
	C409.314453,307.017883 404.197266,316.020874 400.713531,325.175262 
	C393.072449,345.254059 390.722595,366.322388 391.839264,387.869049 
	C392.996399,410.196716 400.551697,428.998840 419.785156,442.811920 
M395.566376,488.007080 
	C397.440643,488.681488 399.296967,489.411591 401.191986,490.021606 
	C417.160065,495.161560 433.584229,495.399292 450.016266,493.832306 
	C460.739075,492.809753 471.575928,491.401703 480.863800,485.037781 
	C485.863098,481.612335 489.554535,477.294617 489.964691,470.891235 
	C490.377808,464.441772 486.883423,460.347321 480.516388,461.128448 
	C475.489777,461.745178 470.582031,463.609039 465.716003,465.206787 
	C446.844330,471.403320 427.937134,472.767334 409.158539,465.207764 
	C402.567688,462.554535 396.417328,458.825043 389.977936,455.772308 
	C383.792328,452.839813 376.032532,454.426514 372.711121,459.063446 
	C369.578369,463.436981 370.129730,470.061005 375.617157,474.756836 
	C381.458771,479.755829 388.382355,483.490479 395.566376,488.007080 
M337.777954,300.737610 
	C335.319305,300.779114 332.823212,300.558807 330.408112,300.904633 
	C314.709595,303.152374 304.183899,317.829529 307.246643,333.044006 
	C310.437317,348.893860 326.158081,358.721954 341.622101,354.534424 
	C353.869507,351.217926 362.447510,339.317352 361.890686,326.415039 
	C361.335846,313.558197 351.992645,303.308777 337.777954,300.737610 
M516.165527,336.072235 
	C523.096558,354.955536 543.026917,360.112030 555.983398,346.374084 
	C564.777710,337.049408 565.775330,320.149475 558.137390,309.888000 
	C549.437439,298.199768 533.546326,296.953979 523.292908,307.239349 
	C515.426819,315.129883 513.524902,324.651794 516.165527,336.072235 
z"/>
<path fill="#AC8FCE" opacity="1.000000" stroke="none" 
	d="
M617.988464,215.812683 
	C615.502136,225.224701 612.283813,233.875183 606.548401,242.818985 
	C603.988098,238.834229 601.863647,235.625900 599.836304,232.357361 
	C582.003357,203.606491 558.449402,180.448120 530.439209,161.733398 
	C522.983582,156.751953 515.121033,152.374298 507.393921,147.806381 
	C503.031708,145.227600 503.138031,144.833633 506.933044,141.171204 
	C517.808899,130.675308 530.634949,124.299187 545.520813,121.773895 
	C561.077942,119.134727 575.172607,123.001938 588.431152,130.894379 
	C616.187195,147.416748 623.751221,172.884735 620.260620,203.160172 
	C619.786377,207.273102 618.820557,211.329376 617.988464,215.812683 
z"/>
<path fill="#4C3095" opacity="1.000000" stroke="none" 
	d="
M419.477539,442.617340 
	C400.551697,428.998840 392.996399,410.196716 391.839264,387.869049 
	C390.722595,366.322388 393.072449,345.254059 400.713531,325.175262 
	C404.197266,316.020874 409.314453,307.017883 415.539490,299.471161 
	C430.162842,281.742828 454.301544,281.474121 471.106018,297.581329 
	C484.164886,310.098267 491.654846,325.795135 496.548462,342.729370 
	C501.736603,360.682861 504.416016,379.174042 503.812103,397.897614 
	C503.568573,405.447968 502.173065,413.123535 500.133087,420.415161 
	C497.132660,431.139832 490.261749,439.257263 480.040527,444.005676 
	C459.811188,453.403473 439.650452,454.267212 419.477539,442.617340 
z"/>
<path fill="#4D3196" opacity="1.000000" stroke="none" 
	d="
M395.199951,487.892120 
	C388.382355,483.490479 381.458771,479.755829 375.617157,474.756836 
	C370.129730,470.061005 369.578369,463.436981 372.711121,459.063446 
	C376.032532,454.426514 383.792328,452.839813 389.977936,455.772308 
	C396.417328,458.825043 402.567688,462.554535 409.158539,465.207764 
	C427.937134,472.767334 446.844330,471.403320 465.716003,465.206787 
	C470.582031,463.609039 475.489777,461.745178 480.516388,461.128448 
	C486.883423,460.347321 490.377808,464.441772 489.964691,470.891235 
	C489.554535,477.294617 485.863098,481.612335 480.863800,485.037781 
	C471.575928,491.401703 460.739075,492.809753 450.016266,493.832306 
	C433.584229,495.399292 417.160065,495.161560 401.191986,490.021606 
	C399.296967,489.411591 397.440643,488.681488 395.199951,487.892120 
z"/>
<path fill="#4D3196" opacity="1.000000" stroke="none" 
	d="
M338.187805,300.800201 
	C351.992645,303.308777 361.335846,313.558197 361.890686,326.415039 
	C362.447510,339.317352 353.869507,351.217926 341.622101,354.534424 
	C326.158081,358.721954 310.437317,348.893860 307.246643,333.044006 
	C304.183899,317.829529 314.709595,303.152374 330.408112,300.904633 
	C332.823212,300.558807 335.319305,300.779114 338.187805,300.800201 
z"/>
<path fill="#4D3196" opacity="1.000000" stroke="none" 
	d="
M516.069580,335.672607 
	C513.524902,324.651794 515.426819,315.129883 523.292908,307.239349 
	C533.546326,296.953979 549.437439,298.199768 558.137390,309.888000 
	C565.775330,320.149475 564.777710,337.049408 555.983398,346.374084 
	C543.026917,360.112030 523.096558,354.955536 516.069580,335.672607 
z"/>
</svg>